<?xml version="1.0" encoding="UTF-8"?>
<svg width="16px" height="16px" viewBox="0 0 16 16" version="1.1" xmlns="http://www.w3.org/2000/svg" xmlns:xlink="http://www.w3.org/1999/xlink">
    <title>Status not available</title>
    <g id="Status-not-available" stroke="none" stroke-width="1" fill="none" fill-rule="evenodd">
        <g id="Organization-/-Status-/-unknown--filled-/-16">
            <path d="M14.708,7.295 L8.705,1.2925 C8.51802505,1.10551734 8.26442797,1.00047092 8,1.00047092 C7.73557203,1.00047092 7.48197495,1.10551734 7.295,1.2925 L1.2925,7.2955 C0.903461124,7.68479879 0.903461124,8.31570121 1.2925,8.705 L7.295,14.708 C7.68429879,15.0970389 8.31520121,15.0970389 8.7045,14.708 L14.708,8.705 C14.8949827,8.51802505 15.0000291,8.26442797 15.0000291,8 C15.0000291,7.73557203 14.8949827,7.48197495 14.708,7.295 Z M8,12 C7.58578644,12 7.25,11.6642136 7.25,11.25 C7.25,10.8357864 7.58578644,10.5 8,10.5 C8.41421356,10.5 8.75,10.8357864 8.75,11.25 C8.75,11.6642136 8.41421356,12 8,12 Z M8.5625,8.624 L8.5625,9.5625 L7.4375,9.5625 L7.4375,7.5 L8.5,7.5 C9.01776695,7.5 9.4375,7.08026695 9.4375,6.5625 C9.4375,6.04473305 9.01776695,5.625 8.5,5.625 L7.5,5.625 C6.98246152,5.62555116 6.56305116,6.04496152 6.5625,6.5625 L6.5625,6.8125 L5.4375,6.8125 L5.4375,6.5625 C5.43887752,5.42398378 6.36148378,4.50137752 7.5,4.5 L8.5,4.5 C9.62623987,4.5009261 10.5435008,5.40513438 10.5605672,6.53124531 C10.5776336,7.65735625 9.68819457,8.5889454 8.5625,8.624 Z" id="Fill" fill="#8C8C8C"></path>
            <path d="M8,10.5 C8.41421356,10.5 8.75,10.8357864 8.75,11.25 C8.75,11.6642136 8.41421356,12 8,12 C7.58578644,12 7.25,11.6642136 7.25,11.25 C7.25,10.8357864 7.58578644,10.5 8,10.5 Z M8.5625,8.624 C9.68819457,8.5889454 10.5776336,7.65735625 10.5605672,6.53124531 C10.5435008,5.40513438 9.62623987,4.5009261 8.5,4.5 L7.5,4.5 C6.36148378,4.50137752 5.43887752,5.42398378 5.4375,6.5625 L5.4375,6.8125 L6.5625,6.8125 L6.5625,6.5625 C6.56305116,6.04496152 6.98246152,5.62555116 7.5,5.625 L8.5,5.625 C9.01776695,5.625 9.4375,6.04473305 9.4375,6.5625 C9.4375,7.08026695 9.01776695,7.5 8.5,7.5 L7.4375,7.5 L7.4375,9.5625 L8.5625,9.5625 L8.5625,8.624 Z" id="Inner-Fill" fill="#000000" opacity="0"></path>
        </g>
    </g>
</svg>